<?xml version="1.0" encoding="utf-8"?>
<!-- Generator: Adobe Illustrator 21.1.0, SVG Export Plug-In . SVG Version: 6.00 Build 0)  -->
<svg version="1.1" id="Ebene_1" xmlns="http://www.w3.org/2000/svg" xmlns:xlink="http://www.w3.org/1999/xlink" x="0px" y="0px"
	 viewBox="0 0 1716 1080" style="enable-background:new 0 0 1716 1080;" xml:space="preserve">
<style type="text/css">
	.st0{fill:#536366;}
	.st1{fill:url(#SVGID_1_);}
</style>
<path class="st0" d="M685.1,432.1h-9.8c-5.2,0-7.4,2.2-7.4,7.4v33.8c-6.6-1.8-17.7-4.5-30.7-4.5c-32.1,0-49.1,17-49.1,49.3v32.8
	c0,31.8,17.9,48.6,51.6,48.6c20.8,0,34.1-4.2,42.3-7.4c8.2-3.3,10.2-6.2,10.2-14.5v-138C692.3,434.4,690.1,432.1,685.1,432.1z
	 M667.9,570.4c0,1.9,0,1.9-2,2.7c-6.7,2.3-15.3,3.6-24.3,3.6c-19.4,0-28.8-8.7-28.8-26.5v-31.4c0-18.6,9-27.2,28.4-27.2
	c11.7,0,21.1,2.9,26.7,4.6V570.4z M1392.7,472.3h-28.6v-32.7c0-5.2-2.2-7.4-7.4-7.4h-9.8c-5.1,0-7.2,2.2-7.2,7.4v32.7h-17.4
	c-5.2,0-7.4,2.2-7.4,7.4v8.1c0,5.2,2.2,7.4,7.4,7.4h17.4v52.8c0,19.7,3.4,32.1,11.1,40c7.5,7.8,19.1,11.2,37.4,11.2
	c1.3,0,2.7,0,4.1-0.1c4.7-0.2,7.6-1.6,7.6-7.4v-8.4c0-5.4-2.2-7.4-7.7-7.4c-21.5,0-28.1-3.9-28.1-28.4v-52.3h28.6
	c5,0,7.2-2.3,7.2-7.4v-8.1C1399.9,474.6,1397.7,472.3,1392.7,472.3z M1558.2,472.3h-9.8c-5.2,0-7.4,2.2-7.4,7.4v108.8
	c0,5.2,2.2,7.4,7.4,7.4h9.8c5.2,0,7.4-2.2,7.4-7.4V479.7C1565.6,474.5,1563.4,472.3,1558.2,472.3z M493,468.8
	c-33.8,0-53.9,17.4-53.9,46.5v37.9c0,28.5,20.7,46.3,53.9,46.3c33.9,0,54.2-17.3,54.2-46.3v-37.9C547.2,486.2,527,468.8,493,468.8z
	 M522.8,553.2c0,14.9-11.1,23.7-29.8,23.7c-18.5,0-29.5-8.9-29.5-23.7v-38.1c0-14.9,11-23.7,29.5-23.7c18.6,0,29.8,8.9,29.8,23.7
	V553.2z M1232.3,468.8c-22.9,0-36.7,4.6-45.1,8.1c-7.7,3.2-10,6.5-10,14.7v97c0,5.1,2.2,7.4,7.2,7.4h9.8c5.2,0,7.4-2.2,7.4-7.4
	v-90.5c0-1.4,0.2-1.9,1.5-2.4c8.5-2.7,17.4-4.1,26.4-4.1c18.6,0,27.2,8.2,27.2,25.8v71.2c0,5.2,2.2,7.4,7.4,7.4h9.8
	c5.2,0,7.4-2.2,7.4-7.4v-71.9C1281.3,485.3,1264.4,468.8,1232.3,468.8z M1080.2,468.8c-34.6,0-54.4,18.8-54.4,51.6v28.8
	c0,32.4,19,50.2,53.5,50.2c24.8,0,42.1-8.4,51.6-24.8c1.7-2.6,2.2-4.9,1.7-7c-0.5-2-2-3.6-4.5-4.8l-6.2-3.2c-2-1.1-3.6-1.6-5.1-1.6
	c-3,0-4.9,2.2-6.5,4.4c-6.1,10.2-16.1,15.1-30.7,15.1c-19.2,0-29.3-9-29.3-26v-9.3h74c6.8,0,10.5-3.5,10.5-10v-13.5
	C1134.7,487.5,1114.3,468.8,1080.2,468.8z M1110.2,522.5h-60v-4.9c0-17.7,10.7-27.4,30-27.4s30,9.7,30,27.4V522.5z M790.6,468.8
	c-34.6,0-54.4,18.8-54.4,51.6v28.8c0,32.4,19,50.2,53.5,50.2c24.8,0,42.1-8.4,51.6-24.8c1.7-2.6,2.2-4.9,1.7-7c-0.5-2-2-3.6-4.5-4.8
	l-6.2-3.2c-2-1.1-3.6-1.6-5.1-1.6c-3,0-4.9,2.2-6.5,4.4c-6.1,10.2-16.1,15.1-30.7,15.1c-19.2,0-29.3-9-29.3-26v-9.3h74
	c6.8,0,10.5-3.5,10.5-10v-13.5C845,487.5,824.7,468.8,790.6,468.8z M820.6,522.5h-60v-4.9c0-17.7,10.7-27.4,30-27.4
	c19.3,0,30,9.7,30,27.4V522.5z M1497.8,468.8h-7.5c-16.8,0.4-31.3,2.8-43.2,7.3c-7.7,3.2-10,6.6-10,14.7v97.7c0,5.1,2.2,7.4,7.2,7.4
	h9.8c5.2,0,7.4-2.2,7.4-7.4v-90.2c0-1.6,0-2.1,1.9-2.9c8.5-2.6,16.8-3.9,26.2-3.9h8.1c5.2,0,7.4-2.2,7.4-7.4v-7.9
	C1505.2,471,1503,468.8,1497.8,468.8z"/>
<linearGradient id="SVGID_1_" gradientUnits="userSpaceOnUse" x1="28.1137" y1="630.0439" x2="205.9165" y2="452.2411">
	<stop  offset="5.000000e-02" style="stop-color:#06B0D4"/>
	<stop  offset="0.2289" style="stop-color:#4AB7CE"/>
	<stop  offset="0.7435" style="stop-color:#93CCB9"/>
	<stop  offset="1" style="stop-color:#A8D3AF"/>
</linearGradient>
<path class="st1" d="M124.8,619.5c-2-2-5.2-2.2-7.6-0.6c-10.9,7.5-23.2,10.7-34.3,10.7c-34.7,0-62.8-28.6-61.9-63.4
	c0.8-33.8,29.3-60.5,63.1-60.5h66.4c6.3,0,12,4.6,12.8,10.8c1,7.6-5,14.1-12.4,14.1h-67c-18.1,0-33.6,14.1-34.3,32.2
	c-0.7,19,14.6,34.8,33.5,34.8h66.6c45.4,0,83.5-35.9,84.3-81.3c0.9-46.5-36.7-84.6-82.9-84.6c-14.1,0-32,3.4-48.1,15.3
	c-2.9,2.1-3.2,6.4-0.7,8.9l6.9,6.9c2,2,5.2,2.2,7.6,0.6c10.9-7.5,23.2-10.7,34.3-10.7c34.7,0,62.8,28.6,61.9,63.5
	c-0.8,33.8-29.3,60.5-63.1,60.5H83.5c-6.3,0-12-4.5-12.8-10.8c-1-7.6,5-14.1,12.4-14.1h67c18.1,0,33.6-14.1,34.3-32.2
	c0.7-19-14.6-34.8-33.5-34.8H84.3C38.9,484.7,0.9,520.6,0,566c-0.9,46.5,36.7,84.6,82.9,84.6c14.1,0,32-3.4,48.1-15.3
	c2.9-2.1,3.2-6.4,0.7-8.9L124.8,619.5z"/>
<path class="st0" d="M395.7,555.8c0,0-7.8-3-11.1-2.9c-3.5,0-5,2.7-6.4,5.7c-5.7,12.3-14.3,18.8-29.5,18.8
	c-18.3,0-28.4-9.2-28.4-25.8v-35.1c0-16.7,9.8-25.6,28.4-25.6c15.6,0,23,5.6,28.5,18.4c1,2.4,2.7,5.5,6.5,5.7c3,0.2,14.7-3.7,17-7.4
	c1-1.6,0.7-3.8-0.2-6.3c-4.7-14.8-17.3-32.5-50.8-32.5c-34.8,0-53.9,17.3-53.9,48.6v33.2c0,31.5,18.7,48.8,52.5,48.8
	c27.4,0,44.6-10.9,52.7-33.3C403.3,559.7,399.7,557.3,395.7,555.8z"/>
<path class="st0" d="M982.9,555.8c0,0-7.8-3-11.1-2.9c-3.5,0-5,2.7-6.4,5.7c-5.7,12.3-14.3,18.8-29.5,18.8
	c-18.3,0-28.4-9.2-28.4-25.8v-35.1c0-16.7,9.8-25.6,28.4-25.6c15.6,0,23,5.6,28.5,18.4c1,2.4,2.7,5.5,6.5,5.7c3,0.2,14.7-3.7,17-7.4
	c1-1.6,0.7-3.8-0.2-6.3c-4.7-14.8-17.3-32.5-50.8-32.5c-34.8,0-53.9,17.3-53.9,48.6v33.2c0,31.5,18.7,48.8,52.5,48.8
	c27.4,0,44.6-10.9,52.7-33.3C990.5,559.7,986.9,557.3,982.9,555.8z"/>
<path class="st0" d="M1710.1,555.8c0,0-7.8-3-11.1-2.9c-3.5,0-5,2.7-6.4,5.7c-5.7,12.3-14.3,18.8-29.5,18.8
	c-18.3,0-28.4-9.2-28.4-25.8v-35.1c0-16.7,9.8-25.6,28.4-25.6c15.6,0,23,5.6,28.5,18.4c1,2.4,2.7,5.5,6.5,5.7c3,0.2,14.7-3.7,17-7.4
	c1-1.6,0.7-3.8-0.2-6.3c-4.7-14.8-17.3-32.5-50.8-32.5c-34.8,0-53.9,17.3-53.9,48.6v33.2c0,31.5,18.7,48.8,52.5,48.8
	c27.4,0,44.6-10.9,52.7-33.3C1717.6,559.7,1714,557.3,1710.1,555.8z"/>
</svg>
